<?xml version="1.0" encoding="utf-8"?>
<!-- Generator: Adobe Illustrator 16.0.0, SVG Export Plug-In . SVG Version: 6.00 Build 0)  -->
<!DOCTYPE svg PUBLIC "-//W3C//DTD SVG 1.1//EN" "http://www.w3.org/Graphics/SVG/1.1/DTD/svg11.dtd">
<svg version="1.1" id="圖層_1" xmlns="http://www.w3.org/2000/svg" xmlns:xlink="http://www.w3.org/1999/xlink" x="0px" y="0px"
	 width="55px" height="55px" viewBox="0 0 55 55" enable-background="new 0 0 55 55" xml:space="preserve">
<g id="圖層_1_1_">
	<circle fill="#CB151D" cx="27.5" cy="27.5" r="26.169"/>
	<g>
		<g>
			<path fill="#FFFFFF" d="M41.051,40.467c0.741,0,1.386-0.252,1.933-0.736l-9.345-9.346c-0.226,0.162-0.451,0.322-0.645,0.455
				c-0.709,0.515-1.276,0.932-1.707,1.221c-0.445,0.291-1.024,0.58-1.74,0.87c-0.73,0.31-1.402,0.451-2.03,0.451H27.5h-0.016
				c-0.628,0-1.303-0.142-2.03-0.451c-0.72-0.29-1.3-0.579-1.74-0.87c-0.432-0.291-1-0.706-1.705-1.221
				c-0.195-0.133-0.41-0.295-0.643-0.455l-9.35,9.346c0.544,0.484,1.185,0.736,1.928,0.736H41.051z"/>
			<path fill="#FFFFFF" d="M12.862,24.492c-0.701-0.463-1.323-0.996-1.862-1.601V37.12l8.242-8.25
				C17.594,27.725,15.471,26.259,12.862,24.492z"/>
			<path fill="#FFFFFF" d="M42.15,24.492c-2.5,1.702-4.639,3.152-6.385,4.378L44,37.12V22.891
				C43.467,23.48,42.854,24.011,42.15,24.492z"/>
			<path fill="#FFFFFF" d="M41.051,14.536H13.943c-0.938,0-1.669,0.314-2.178,0.952C11.25,16.131,11,16.923,11,17.886
				c0,0.773,0.336,1.611,1.009,2.515c0.674,0.902,1.4,1.61,2.156,2.126c0.419,0.294,1.675,1.163,3.773,2.621
				c1.141,0.789,2.125,1.466,2.97,2.059c0.717,0.504,1.35,0.946,1.864,1.311c0.054,0.033,0.143,0.098,0.264,0.193
				c0.13,0.098,0.308,0.216,0.515,0.354c0.39,0.291,0.732,0.523,1,0.709c0.258,0.174,0.58,0.383,0.953,0.596
				c0.369,0.214,0.723,0.389,1.053,0.5c0.342,0.1,0.636,0.162,0.927,0.162H27.5h0.014c0.291,0,0.587-0.062,0.93-0.162
				c0.327-0.111,0.681-0.286,1.053-0.5c0.37-0.213,0.692-0.422,0.949-0.596c0.267-0.186,0.611-0.419,0.998-0.709
				c0.21-0.139,0.387-0.257,0.515-0.354c0.128-0.097,0.215-0.161,0.265-0.193c0.415-0.29,1.024-0.713,1.864-1.298
				c1.538-1.063,3.773-2.627,6.768-4.691c0.896-0.625,1.645-1.383,2.242-2.269C43.693,19.371,44,18.453,44,17.479
				c0-0.814-0.295-1.507-0.883-2.085C42.532,14.822,41.856,14.536,41.051,14.536z"/>
		</g>
	</g>
</g>
</svg>
